<?xml version="1.0" encoding="utf-8"?>
<!-- Generator: Adobe Illustrator 23.0.3, SVG Export Plug-In . SVG Version: 6.00 Build 0)  -->
<svg version="1.1" id="Layer_1" xmlns="http://www.w3.org/2000/svg" xmlns:xlink="http://www.w3.org/1999/xlink" x="0px" y="0px"
	 viewBox="0 0 2080 2080" style="enable-background:new 0 0 2080 2080;" xml:space="preserve">
<style type="text/css">
	.st0{fill:#FFFFFF;stroke:#000000;stroke-width:10;stroke-miterlimit:10;}
	.st1{fill:none;stroke:#000000;stroke-width:10;stroke-miterlimit:10;}
</style>
<path class="st0" d="M264.45,1116.61c0,216.37,0,432.74,0,649.11h362.74c0-216.37,0-432.74,0-649.11
	C506.27,1116.61,385.36,1116.61,264.45,1116.61z"/>
<path class="st0" d="M894.46,1288.43"/>
<path class="st0" d="M627.18,1269.34c165.88-31.84,264.48,0.78,324.56,38.18c69.48,43.26,70.04,78.54,133.64,95.46
	c116.43,30.97,209.85-66.03,285.17-13.43c5.76,4.03,26.75,19.11,35,46c14.74,48.01-23.22,94.17-29,101
	c-160.7,0.02-321.39,0.05-482.09,0.07"/>
<path class="st0" d="M1376.55,1536.55c79.27-17.83,133.02-48,168-73c37.7-26.95,49.97-35.28,93-75
	c62.47-57.67,123.54-82.18,154.22-61.94c34.97,23.07,21.85,98.62,19.09,114.55c-32.68,188.84-336.47,378.03-630.02,381.83
	c-283.56,3.67-486.17-166.59-553.65-229.1"/>
<path class="st0" d="M1390.84,1536.62"/>
<path class="st1" d="M881.24,774.48c-32.56,2.38-58.78,27.15-62.73,57.94c-4.33,33.74,19.08,66.8,54.29,74.12
	c105.47,1.46,210.94,2.91,316.4,4.37c37.93,2.59,70.54-27.33,71.49-64.33c0.93-35.98-28.39-67.03-65.34-67.92
	C1090.64,777.27,985.94,775.88,881.24,774.48z"/>
<path class="st1" d="M1250.81,1059.33c-32.56,2.38-58.78,27.15-62.73,57.94c-4.33,33.74,19.08,66.8,54.29,74.12
	c105.47,1.46,210.94,2.91,316.4,4.37c37.93,2.59,70.54-27.33,71.49-64.33c0.93-35.98-28.39-67.03-65.34-67.92
	C1460.22,1062.12,1355.52,1060.73,1250.81,1059.33z"/>
<path class="st1" d="M1394.86,544.04c-32.56,2.38-58.78,27.15-62.73,57.94c-4.33,33.74,19.08,66.8,54.29,74.12
	c105.47,1.46,210.94,2.91,316.4,4.37c37.93,2.59,70.54-27.33,71.49-64.33c0.93-35.98-28.39-67.03-65.34-67.92
	C1604.26,546.83,1499.56,545.44,1394.86,544.04z"/>
</svg>
