<?xml version="1.0" encoding="utf-8"?>
<!-- Generator: Adobe Illustrator 23.0.3, SVG Export Plug-In . SVG Version: 6.00 Build 0)  -->
<svg version="1.1" id="Layer_1" xmlns="http://www.w3.org/2000/svg" xmlns:xlink="http://www.w3.org/1999/xlink" x="0px" y="0px"
	 viewBox="0 0 2080 2080" style="enable-background:new 0 0 2080 2080;" xml:space="preserve">
<style type="text/css">
	.st0{fill:none;stroke:#000000;stroke-miterlimit:10;}
	.st1{fill:none;stroke:#000000;stroke-width:21;stroke-miterlimit:10;}
</style>
<path class="st0" d="M177.05,1131.14c-21.23-44.76-47.39-116.88-47.13-207.35c0.14-47.59,0.36-121.9,47.13-197.93
	c33.67-54.74,77.09-86.99,103.68-103.68c37.86-23.76,23.13-50.13,18.85-56.55c-11.08-16.61-50.83-6.72-53.54-6.01
	c-30.84,18.29-81.19,53.69-121.44,114.69c-62.68,95.01-61.4,192.33-60.65,249.48c1.28,97.94,29.1,177.06,53.91,229.53
	c1.79,2.35,23.42,30.26,40.34,24.95C162,1177.08,194.51,1167.93,177.05,1131.14z"/>
<path class="st0" d="M299.58,405.41c57.28-70.9,184.71-208.57,395.86-292.18C963.35,7.15,1195.57,55.61,1242.09,66.1
	c40.04,9.03,244.81,58.11,433.56,235.63c211.85,199.25,269.9,436.56,301.6,565.51c77.27,314.26,22.74,582.33-18.85,725.74
	c-0.72,1.04-14.36,20.17-37.7,18.85c-16.78-0.95-31.63-12.08-37.7-28.28c41.46-152.49,98.7-456.79-18.85-791.71
	c-38.27-109.04-97.56-271.76-254.48-414.71c-65.15-59.35-299.94-254.55-640.91-226.2c-368.16,30.61-572.65,297.93-603.21,339.3
	c-1.76,0.33-34.53,5.81-56.55-18.85C293.18,453.66,289.45,427.67,299.58,405.41z"/>
<path class="st0" d="M1685.08,1856.88c27.4-79.57,62.68-192.2,94.25-329.88c37.2-162.21,58.96-257.09,58.91-387.17
	c-0.04-100.24-1.65-247.74-77.76-413.96c-73.06-159.57-180.96-262.55-254.48-320.45c-22.8-8.18-46.33-3.86-56.55,9.43
	c-13.8,17.94-6.57,56.43,28.28,75.4c66.03,54.7,164.95,152.5,226.2,301.6c75.35,183.41,54.45,348.85,28.28,556.08
	c-14.44,114.3-44.49,275.21-113.1,461.83c-12.93,18.1-8.67,43.62,9.43,56.55C1646.62,1879.23,1672.15,1874.98,1685.08,1856.88z"/>
<path class="st0" d="M1326.92,282.88c-64.06-11.96-155.16-23.71-264.54-20.11c-75.97,2.5-195.36,7.42-337.33,60.72
	c-75.04,28.17-172.21,64.65-263.12,155.17C357.41,582.75,319.26,700.43,309.01,735.29c-68.63,233.43,44.36,407.87-56.55,490.11
	c-35.13,28.63-76.67,35.75-103.68,37.7c-11.79,4.99-19.29,16.39-18.85,28.28c0.54,14.32,12.52,26.89,28.28,28.28
	c101.98-14.58,147.17-53.54,169.65-84.83c79.6-110.78-6.41-290.89,46.37-493.04c6.6-25.29,16.39-54.78,33.36-86.85
	c38.21-72.17,89.87-113.97,118.19-136.42c198.75-157.52,480.68-179.08,480.68-179.08c73.62-5.63,185.88-5.78,320.45,28.28
	c2.82-1.08,22.38-8.88,28.28-28.28C1361.32,319.27,1350.19,294.73,1326.92,282.88z"/>
<path class="st0" d="M177.05,1442.17c78.54-2.03,185.42-18.26,254.48-94.25c129.77-142.8-19.73-336.37,84.83-574.93
	c80.5-183.68,284.19-331.48,499.53-339.3c187.51-6.81,322.38,94.76,358.16,122.53c203.88,158.24,235.23,404.78,254.48,556.08
	c33.81,265.85-39.25,475.04-75.4,574.93c-44.5,122.94-99.14,218.2-141.38,282.75c-21.11,8.65-45.4,0.37-56.55-18.85
	c-10.61-18.3-6.78-42.14,9.43-56.55c36.43-54.35,83.17-133.59,122.53-235.63c98.07-254.29,80.32-468.79,75.4-518.38
	c-6.74-67.9-16.84-162-65.98-273.33c-42.37-96.01-104.46-236.71-254.48-311.03c-161.6-80.06-362.06-51.78-499.53,47.13
	c-131.15,94.36-175.72,231.94-188.5,273.33c-65.71,212.77,42.62,322.89-28.28,461.83c-34.44,67.49-113.35,146.08-311.03,188.5
	c-23.66,6.19-48.11-6.38-56.55-28.28C150.36,1478.39,158.09,1454.54,177.05,1442.17z"/>
<path class="st0" d="M1194.97,2017.11c67.14-102.63,154.02-261.56,207.35-471.26c44.91-176.59,51.23-330.97,47.13-442.98
	c-12.23-19.3-36.34-27.06-56.55-18.85c-18.33,7.44-29.98,26.61-28.28,47.13c7.13,94.28,6.5,225.78-28.28,377.01
	c-46.9,203.92-135.2,353.74-197.93,442.98c-19.42,19.59-17.81,50.47,0,65.98C1153.18,2029.96,1177.22,2030.63,1194.97,2017.11z"/>
<path class="st0" d="M1430.6,980.34c-35.81-187.91-173.02-330.96-339.3-358.15c-123.93-20.27-250.63,26.01-329.88,103.68
	c-123.8,121.33-137.28,324.59-141.38,386.43c-3.02,45.57-3.78,128.36-37.7,235.63c-11.28,35.67-20.53,64.94-37.7,94.25
	c-63.7,108.76-194.43,146.47-263.9,160.23c-1.12,1.3-15.13,18.1-9.43,37.7c5.26,18.05,25,30.78,47.13,28.28
	c98.52-28.11,231.38-84.3,301.6-207.35c28.18-49.37,26.13-75.63,65.98-311.03c44.37-262.16,58.72-300.87,93.01-340.75
	c57.37-66.72,151.88-115.03,255.72-111.66c20.37,0.66,149.44,20.76,226.2,103.68c68.46,73.95,81.58,158.33,84.83,188.5
	c2.59,23.27,23.86,40.29,47.13,37.7C1416.16,1024.88,1433.18,1003.61,1430.6,980.34z"/>
<path class="st0" d="M431.53,1762.63c46.83-14.61,113.14-41.73,179.08-94.25c127.34-101.44,174.38-234.81,197.93-301.6
	c34.67-98.31,45.65-193.93,47.13-207.35c8.93-81.3,0.92-109.63,18.85-179.08c17.07-66.12,32.01-123.99,84.83-160.23
	c72.09-49.45,160.93-21.63,169.65-18.85c119.02,37.89,154.29,182.93,160.23,207.35c23.76,97.72-3.85,180.35-18.85,216.78
	c-12.03,14.05-31.94,17.76-47.13,9.43c-13.06-7.17-20.6-22.14-18.85-37.7c61.05-113.79,45.87-232.26-18.85-282.75
	c-51.83-40.45-141.25-41.82-197.93,0c-101.4,74.82-17.19,228.26-113.1,499.53c-18.81,53.22-42.29,118.25-94.25,188.5
	c-101.98,137.89-241.07,199.09-320.45,226.2c-17.83-0.64-33.06-12.23-37.7-28.28C416.2,1779.9,430.71,1763.52,431.53,1762.63z"/>
<path class="st0" d="M1081.87,1055.74c12.69,85.02,21.5,225.93-28.28,386.43c-23.75,76.56-55.24,139.57-84.83,188.5
	c-15.51,15.51-41.04,15.51-56.55,0c-15.51-15.51-15.51-41.04,0-56.55c26.09-37.07,53.52-84.1,75.4-141.38
	c60.54-158.46,43.2-302.67,28.28-377.01c2.81-14.98,14.45-26.39,28.28-28.28C1060.89,1025.18,1078,1037.2,1081.87,1055.74z"/>
<path class="st0" d="M835.29,1757.66c-11.14,20.34-32.23,52.78-68.83,82.19c-39.45,31.7-78.74,45.28-101.71,51.37
	c-15.45,4.74-21.73,21.2-16.44,31.64c4.3,8.48,16.41,13.35,28.28,9.43c56.87-21.64,98.9-47.72,126.85-67.78
	c56.5-40.54,69.76-66.7,71.91-88.35c0.62-6.25,2.4-24.15-7.19-29.79C860.41,1741.8,847.08,1746.3,835.29,1757.66z"/>
<path class="st0" d="M1223.24,1536.42c-14.49,56.35-35.39,120.35-65.98,188.5c-54.88,122.28-122.17,215.99-179.08,282.75
	c-14.55,14.15-36.77,12.53-47.13,0c-8.04-9.73-8.41-25.39,0-37.7c50.11-51.76,121.16-138.84,169.65-263.9
	c27.58-71.12,40.77-136.23,47.13-188.5c4.68-22.29,21.73-37.59,37.7-37.7C1206.01,1479.73,1228.71,1504.53,1223.24,1536.42z"/>
<path class="st0" d="M780.26,707.01"/>
<path class="st1" d="M2171,600.67"/>
</svg>
