<?xml version="1.0" encoding="utf-8"?>
<!-- Generator: Adobe Illustrator 23.0.3, SVG Export Plug-In . SVG Version: 6.00 Build 0)  -->
<svg version="1.1" id="Layer_1" xmlns="http://www.w3.org/2000/svg" xmlns:xlink="http://www.w3.org/1999/xlink" x="0px" y="0px"
	 viewBox="0 0 2080 2080" style="enable-background:new 0 0 2080 2080;" xml:space="preserve">
<style type="text/css">
	.st0{fill:#FFFFFF;stroke:#000000;stroke-miterlimit:10;}
	.st1{clip-path:url(#SVGID_2_);}
	.st2{clip-path:url(#SVGID_4_);fill:none;stroke:#000000;stroke-width:0.9998;stroke-miterlimit:10;}
</style>
<path class="st0" d="M115.4,1116.61c0,216.37,0,432.74,0,649.11h362.74c0-216.37,0-432.74,0-649.11
	C357.22,1116.61,236.31,1116.61,115.4,1116.61z"/>
<path class="st0" d="M745.41,1288.43"/>
<path class="st0" d="M478.13,1269.34c165.88-31.84,264.48,0.78,324.56,38.18c69.48,43.26,70.04,78.54,133.64,95.46
	c116.43,30.97,209.85-66.03,285.17-13.43c5.76,4.03,26.75,19.11,35,46c14.74,48.01-23.22,94.17-29,101
	c-160.7,0.02-321.39,0.05-482.09,0.07"/>
<path class="st0" d="M1227.5,1536.55c79.27-17.83,133.02-48,168-73c37.7-26.95,49.97-35.28,93-75
	c62.47-57.67,123.54-82.18,154.22-61.94c34.97,23.07,21.85,98.62,19.09,114.55c-32.68,188.84-336.47,378.03-630.02,381.83
	c-283.56,3.67-486.17-166.59-553.65-229.1"/>
<path class="st0" d="M1241.79,1536.62"/>
<g>
	<g>
		<g>
			<defs>
				
					<rect id="SVGID_1_" x="122.7" y="-1.92" transform="matrix(0.0635 -0.998 0.998 0.0635 52.7694 2136.1514)" width="2083.76" height="2083.76"/>
			</defs>
			<clipPath id="SVGID_2_">
				<use xlink:href="#SVGID_1_"  style="overflow:visible;"/>
			</clipPath>
			<g class="st1">
				<g>
					<defs>
						
							<rect id="SVGID_3_" x="122.7" y="-1.92" transform="matrix(0.0635 -0.998 0.998 0.0635 52.7696 2136.1511)" width="2083.76" height="2083.76"/>
					</defs>
					<clipPath id="SVGID_4_">
						<use xlink:href="#SVGID_3_"  style="overflow:visible;"/>
					</clipPath>
					<path class="st2" d="M683.33,423.64c27.63,49.05,58.91,77.06,82.38,93.58c64.73,45.55,107.44,30,189.69,79.33
						c28.09,16.85,63.68,38.19,94.27,80.28c59.08,81.3,51.84,174.42,49.58,198.9c-3.71,40.19-14.6,71.93-22.91,91.9
						c-11.78-16.75-29.88-40.36-55.04-65.74c-10.68-10.77-37.7-37.07-105.14-82.98c-74.39-50.65-81.33-45.75-111.84-72.37
						c-24.52-21.39-55.58-55.54-81.3-110.58c15.12,54.72,37.5,92.11,54.86,115.92c31.9,43.76,54.8,52.6,160.43,144.72
						c62.23,54.26,76.6,70.66,83.33,78.58c40.2,47.32,63.75,93.65,77.34,125.38c51.84-120.6,118.91-190.53,163.11-228.53
						c72.05-61.95,185.23-126.65,220.13-146.6c20.98-12,47.81-26.76,79.74-54.15c66.11-56.7,103.54-124.16,98.51-128.24
						c-4.86-3.94-38.99,59.56-119.42,109.85c-85.64,53.53-134.2,36.09-213.44,88.8c-48.82,32.48-79.4,71.71-96.53,97.25
						c-9.69-28.18-43.61-137.33,12.83-233.07c36.12-61.29,93.25-89.89,126.23-106.4c108.92-54.53,173.65-21.14,272.05-79.05
						c43.34-25.51,72.1-56.3,88.14-75.7c18.66,50.8,44.95,143.11,33.76,258.12c-4.88,50.14-13.26,127.45-63.42,207.77
						c-18.43,29.51-111.23,178.1-262.22,177.05c-71.16-0.5-125.35-34.03-151.23-52.79c-21.37,17.13-47.27,42.36-69.2,77.91
						c-57.57,93.28-46.69,190.78-41.37,224.23l-85.98-5.47c0.34-18.6-1.5-52.22-18.39-89.51c-20.08-44.32-50.68-70.13-66.08-81.5
						c-13.96,9.47-35.25,21.48-63.02,28.11c-102.04,24.38-192.68-47.36-205.15-57.23C581.89,907.85,622.3,643.44,628.95,599.86
						C640.77,522.53,665.07,461.99,683.33,423.64z"/>
				</g>
			</g>
		</g>
	</g>
</g>
</svg>
