<?xml version="1.0" encoding="utf-8"?>
<!-- Generator: Adobe Illustrator 23.0.3, SVG Export Plug-In . SVG Version: 6.00 Build 0)  -->
<svg version="1.1" id="Layer_1" xmlns="http://www.w3.org/2000/svg" xmlns:xlink="http://www.w3.org/1999/xlink" x="0px" y="0px"
	 viewBox="0 0 2080 2080" style="enable-background:new 0 0 2080 2080;" xml:space="preserve">
<style type="text/css">
	.st0{fill:none;stroke:#000000;stroke-miterlimit:10;}
</style>
<path class="st0" d="M245.11,1245.5c334.62-2.79,669.23-5.58,1003.85-8.37c11.53,36.06,73.75,242.46-41.83,451.73
	c-91.47,165.62-238.68,232.32-284.42,250.96c-69.71,0-139.42,0-209.14,0c-50.19,0-100.39,0-150.58,0
	c-32.02-15.34-295.98-147.04-342.98-426.64C200.85,1399.2,224.87,1302.95,245.11,1245.5z"/>
<path class="st0" d="M1240.6,1613.58c9.96,43.05,42.99,75.98,83.65,83.65c47.79,9.02,102.54-17.5,117.12-66.92
	c12.28-41.64-7.85-86.27-41.83-108.75c-40.04-26.5-96.57-20.41-133.85,16.73c2.79-22.31,5.58-44.62,8.37-66.92
	c56.25-28.27,121.28-25.4,167.31,8.37c68.97,50.6,80.86,160.01,25.1,225.87c-41.4,48.9-115.35,68.18-175.67,41.83
	c-47.08-20.57-68.71-61.45-75.29-75.29C1223.87,1652.62,1232.23,1633.1,1240.6,1613.58z"/>
<path class="st0" d="M537.9,751.94c40.06,6.89,70.35,34.36,75.29,66.92c3.94,25.93-8.77,51.63-25.1,66.92
	c-26.6,24.92-51.26,10.14-75.29,33.46c-19.39,18.81-29.95,54.24-16.73,83.65c14.03,31.21,52.16,49.7,92.02,41.83"/>
<path class="st0" d="M646.65,710.11c41.83,6.49,74.66,32.78,83.65,66.92c10.28,39.06-14.76,72.73-16.73,75.29
	c-31.21,40.62-74.84,22.53-100.39,58.56c-19.75,27.85-22.09,78.71,8.37,108.75c22.49,22.18,58.39,28.59,92.02,16.73"/>
<path class="st0" d="M772.13,760.3c52.11,8.46,89.07,40.55,92.02,75.29c1.88,22.2-10.18,44.71-25.1,58.56
	c-33.54,31.14-72.55,10.15-100.39,41.83c-17.4,19.8-16.96,44.84-16.73,50.19c0.22,5.13,2.33,40.64,33.46,58.56
	c32.11,18.48,65.13,0.99,66.92,0"/>
<ellipse class="st0" cx="726.12" cy="1969.11" rx="715.74" ry="41.41"/>
<path class="st0" d="M245.11,1245.5c148.62-26.3,276.86-37.29,376.44-41.83c25.68-1.17,128.9-5.53,267.69,0
	c142.86,5.69,264.9,19.52,359.71,33.46"/>
</svg>
