<?xml version="1.0" encoding="utf-8"?>
<!-- Generator: Adobe Illustrator 23.0.3, SVG Export Plug-In . SVG Version: 6.00 Build 0)  -->
<svg version="1.1" id="Layer_1" xmlns="http://www.w3.org/2000/svg" xmlns:xlink="http://www.w3.org/1999/xlink" x="0px" y="0px"
	 viewBox="0 0 2080 2080" style="enable-background:new 0 0 2080 2080;" xml:space="preserve">
<style type="text/css">
	.st0{fill:url(#SVGID_1_);stroke:#000000;stroke-miterlimit:10;}
	.st1{fill:none;stroke:#000000;stroke-miterlimit:10;}
	.st2{stroke:#000000;stroke-miterlimit:10;}
</style>
<linearGradient id="SVGID_1_" gradientUnits="userSpaceOnUse" x1="506.5475" y1="827.4354" x2="1844.7156" y2="827.4354">
	<stop  offset="0" style="stop-color:#FFFFFF"/>
	<stop  offset="0.9693" style="stop-color:#2A2627"/>
	<stop  offset="1" style="stop-color:#000000"/>
</linearGradient>
<path class="st0" d="M506.55,1181.33c133.86-366.01,317.4-613.26,442.83-757.24c61.77-70.91,267.17-297.81,566.82-389.69
	c70.47-21.61,142.82-34.73,203.7,0c94.3,53.78,107.96,192.03,119.56,327.69c20.41,238.59-24.8,422.9-31,447.26
	c-98.54,387.48-334.01,685.67-464.97,832.52c-38.27-69.82-145.36-243.1-363.12-358.69C776.55,1174.99,586.71,1176.23,506.55,1181.33
	z"/>
<path class="st1" d="M559.69,1256.61c-19.38,50.67-45.93,128.35-66.42,225.84c-6.96,33.09-64.49,313.03-4.43,336.55
	c47.01,18.41,123.2-137.02,190.42-115.14c34.89,11.36,50.8,65.11,53.14,101.85c8.43,132.12-147.76,212.83-128.42,247.98
	c19.4,35.25,200.78-1.79,363.12-101.85c165.62-102.08,260.68-238.46,309.98-323.26c-59.04-31-118.09-62-177.13-92.99
	c-155.73,220.1-221.47,269.8-247.98,256.84c-41.33-20.2,18.45-189.83-48.71-230.27c-49.43-29.77-121.63,38.13-150.56,13.28
	c-18.7-16.06-19.64-71.13,84.14-261.27C677.77,1294.99,618.73,1275.8,559.69,1256.61z"/>
<path class="st2" d="M1378.92,1602.02c75.28,115.14,150.56,230.27,225.84,345.41c75.28-119.56,150.56-239.13,225.84-358.69
	c-50.19-146.13-100.37-292.27-150.56-438.4"/>
<path class="st2" d="M776.67,649.94c-146.13,25.09-292.27,50.19-438.4,75.28C271.85,852.16,205.42,979.1,139,1106.05
	c129.9,4.43,259.79,8.86,389.69,13.28"/>
<path class="st1" d="M1330.21,255.82c55.46,8.14,144.28,28.31,239.13,84.14c79.9,47.03,134.57,101.99,168.27,141.71
	c-4.43,16.24-8.86,32.47-13.28,48.71c-29.32-40.3-85.55-106.61-177.13-159.42c-101.62-58.6-196.92-71.84-247.98-75.28
	C1309.54,282.39,1319.88,269.1,1330.21,255.82z"/>
<path class="st1" d="M1254.93,632.22c-81.29-2.07-174.37,37.39-221.41,123.99c-3.9,7.17-57.23,109.52-4.43,216.99
	c39.97,81.35,114.12,111.4,137.28,119.56c14.51,5.11,108.83,36.56,203.7-17.71c13.52-7.73,104.34-61.78,119.56-172.7
	c16.95-123.49-75.26-204.98-84.14-212.56C1343,636.47,1272.74,632.68,1254.93,632.22z"/>
</svg>
