<?xml version="1.0" encoding="utf-8"?>
<!-- Generator: Adobe Illustrator 23.0.3, SVG Export Plug-In . SVG Version: 6.00 Build 0)  -->
<svg version="1.1" id="Layer_1" xmlns="http://www.w3.org/2000/svg" xmlns:xlink="http://www.w3.org/1999/xlink" x="0px" y="0px"
	 viewBox="0 0 2080 2080" style="enable-background:new 0 0 2080 2080;" xml:space="preserve">
<style type="text/css">
	.st0{fill:none;stroke:#000000;stroke-width:20;stroke-miterlimit:10;}
	.st1{stroke:#000000;stroke-width:20;stroke-miterlimit:10;}
	.st2{fill:#76FF03;stroke:#000000;stroke-width:20;stroke-miterlimit:10;}
	.st3{fill:none;stroke:#000000;stroke-width:19;stroke-miterlimit:10;}
</style>
<path class="st0" d="M1608.06,1423.34c33.77-0.89,286.07-6.08,386.57,62.69c9,6.16,27.05,18.77,41.79,41.79
	c37.81,59.04,18.5,131.36,10.45,156.72c-19.54,26.49-37.81,47.35-52.24,62.69c-25.65,27.26-39.84,37.75-49.72,44.28
	c-11.23,7.41-22.53,13.4-33.86,18.41c-29.04,12.84-58.89,27.24-98.5,39.63c0,0-23.39,7.17-47.77,12.61
	c-107.28,23.9-240.3,10.45-240.3,10.45c-71.14-7.2-156.07-15.79-250.75-62.69c-65.86-32.62-111.81-69.26-135.82-94.03
	c-330.85-341.29-661.69-682.59-992.54-1023.88c31.34-38.31,62.69-76.62,94.03-114.93c327.36,337.81,654.73,675.62,982.09,1013.44
	c61.42-8.27,147.18-27.18,240.3-73.13C1522.52,1487.4,1571.09,1453.47,1608.06,1423.34z"/>
<path class="st1" d="M846.5,1203.5c168.33-77,336.67-154,505-231c10,17.33,20,34.67,30,52c-164.67,73.67-329.33,147.33-494,221
	C873.83,1231.5,860.17,1217.5,846.5,1203.5z"/>
<path class="st1" d="M939.5,1299.5c158.33-72.33,316.67-144.67,475-217c9.67,17.33,19.33,34.67,29,52
	c-154.33,69.33-308.67,138.67-463,208C966.83,1328.17,953.17,1313.83,939.5,1299.5z"/>
<path class="st1" d="M1040.5,1402.5c147-67.33,294-134.67,441-202c9.67,17.67,19.33,35.33,29,53c-143,64-286,128-429,192
	C1067.83,1431.17,1054.17,1416.83,1040.5,1402.5z"/>
<ellipse class="st2" cx="161.05" cy="1193.49" rx="199.47" ry="73.88"/>
<ellipse class="st2" cx="249.85" cy="1376.32" rx="325.06" ry="81.26"/>
<ellipse class="st2" cx="343.88" cy="1553.94" rx="458.04" ry="81.26"/>
<path class="st3" d="M239.4,577.07C529.36,239.18,659.21,180.36,720,211.4c99.81,50.96-11.07,331.62,167.16,491.05
	c24.44,21.86,132.35,118.39,271.64,114.93c73.92-1.84,130.12-31.58,167.16,0c35.87,30.58,30.79,95.89,20.9,146.27
	c87.07,153.23,174.13,306.47,261.19,459.7"/>
<path class="st0" d="M2046.87,1684.69c-102.27,28.52-288.53,65.18-512.25,20.82c-133.4-26.45-239.29-73.62-313.62-114.51"/>
</svg>
