<?xml version="1.0" encoding="utf-8"?>
<!-- Generator: Adobe Illustrator 23.0.3, SVG Export Plug-In . SVG Version: 6.00 Build 0)  -->
<svg version="1.1" id="Layer_1" xmlns="http://www.w3.org/2000/svg" xmlns:xlink="http://www.w3.org/1999/xlink" x="0px" y="0px"
	 viewBox="0 0 2080 2080" style="enable-background:new 0 0 2080 2080;" xml:space="preserve">
<style type="text/css">
	.st0{fill:none;stroke:#000000;stroke-width:16;stroke-miterlimit:10;}
	.st1{fill:none;stroke:#000000;stroke-miterlimit:10;}
</style>
<path class="st0" d="M29.96,1545.13C0.58,955.79,481.23,461.49,1055.15,468.69c564.49,7.07,1028.61,496.91,999.56,1076.44
	C1379.79,1545.13,704.88,1545.13,29.96,1545.13z"/>
<path class="st0" d="M1430.41,1086.5c-86.52,101.6-173.04,203.2-259.56,304.8c-19.74-13.94-39.48-27.87-59.22-41.81
	c86.52-101.6,173.04-203.2,259.56-304.8c11.47-16.24,34.27-20.17,50.51-8.7S1441.87,1070.25,1430.41,1086.5z"/>
<path class="st0" d="M850.11,1545.13c-3.03-118.6,96.89-212.05,205.04-205.04c99.47,6.45,182.73,96.39,179.41,205.04"/>
<ellipse transform="matrix(0.1306 -0.9914 0.9914 0.1306 -1116.2927 1458.4371)" class="st0" cx="273.45" cy="1365.72" rx="36.25" ry="126.86"/>
<ellipse transform="matrix(0.4893 -0.8721 0.8721 0.4893 -717.7515 890.6561)" class="st0" cx="401.59" cy="1058.17" rx="36.25" ry="126.86"/>
<ellipse transform="matrix(0.892 -0.452 0.452 0.892 -274.2715 404.3191)" class="st0" cx="709.15" cy="776.24" rx="36.25" ry="126.86"/>
<ellipse transform="matrix(0.9999 -0.0172 0.0172 0.9999 -11.8763 18.9236)" class="st0" cx="1093.44" cy="699.42" rx="35.99" ry="126.86"/>
<ellipse transform="matrix(0.6998 -0.7144 0.7144 0.6998 -155.0773 1286.0154)" class="st0" cx="1452.41" cy="827.5" rx="126.86" ry="36.25"/>
<path class="st0" d="M1775.91,1042.17c-7.96-15.82-15.92-31.64-23.88-47.47c-53.42,26.88-106.84,53.75-160.27,80.63
	c7.96,15.82,15.92,31.64,23.88,47.47C1669.06,1095.93,1722.48,1069.05,1775.91,1042.17z"/>
<ellipse transform="matrix(0.9906 -0.1364 0.1364 0.9906 -166.144 256.1587)" class="st0" cx="1785.59" cy="1340.09" rx="126.86" ry="36.25"/>
<path class="st1" d="M-210.5,338.88"/>
</svg>
