<?xml version="1.0" encoding="utf-8"?>
<!-- Generator: Adobe Illustrator 23.0.3, SVG Export Plug-In . SVG Version: 6.00 Build 0)  -->
<svg version="1.1" id="Layer_1" xmlns="http://www.w3.org/2000/svg" xmlns:xlink="http://www.w3.org/1999/xlink" x="0px" y="0px"
	 viewBox="0 0 2080 2080" style="enable-background:new 0 0 2080 2080;" xml:space="preserve">
<style type="text/css">
	.st0{fill:none;stroke:#000000;stroke-width:25;stroke-miterlimit:10;}
</style>
<path class="st0" d="M57.24,605.39c0,378.39,0,756.79,0,1135.18c0.48,12.15,6.9,126.93,103.2,189.2
	c56.78,36.72,115.04,35.92,137.6,34.4c498.79,0,997.58,0,1496.38,0c9.63,0.16,139.25,0.25,206.4-103.2
	c36.39-56.07,35.94-114.08,34.4-137.6c-5.73-384.13-11.47-768.25-17.2-1152.38c-1.05-22.7-6.93-82.83-51.6-137.6
	c-69.46-85.18-174.55-86.11-189.2-86c-470.13-5.73-940.25-11.47-1410.38-17.2c-8.63-0.99-167.63-16.67-258,103.2
	C56.57,502.72,56.16,579.07,57.24,605.39z"/>
<path class="st0" d="M1020.42,1224.58"/>
<path class="st0" d="M315.23,330.2C739.49,238.46,1163.75,146.73,1588.01,55c5.12,0.71,99.83,15.59,137.6,103.2
	c27.14,62.97,13.66,137.49-34.4,189.2"/>
<ellipse class="st0" cx="1803.01" cy="613.99" rx="109.46" ry="60.81"/>
<ellipse class="st0" cx="1562.21" cy="613.99" rx="109.46" ry="60.81"/>
<ellipse class="st0" cx="1321.41" cy="613.99" rx="109.46" ry="60.81"/>
<ellipse class="st0" cx="839.82" cy="613.99" rx="109.46" ry="60.81"/>
<ellipse class="st0" cx="599.03" cy="613.99" rx="109.46" ry="60.81"/>
<ellipse class="st0" cx="358.23" cy="613.99" rx="109.46" ry="60.81"/>
<ellipse class="st0" cx="444.23" cy="1697.57" rx="109.46" ry="60.81"/>
<ellipse class="st0" cx="650.63" cy="1697.57" rx="109.46" ry="60.81"/>
<ellipse class="st0" cx="1097.82" cy="1697.57" rx="109.46" ry="60.81"/>
<ellipse class="st0" cx="1338.61" cy="1697.57" rx="109.46" ry="60.81"/>
<ellipse class="st0" cx="1579.41" cy="1697.57" rx="109.46" ry="60.81"/>
<ellipse class="st0" cx="1803.01" cy="1697.57" rx="109.46" ry="60.81"/>
<ellipse class="st0" cx="874.22" cy="1697.57" rx="109.46" ry="60.81"/>
<ellipse class="st0" cx="1080.62" cy="613.99" rx="109.46" ry="60.81"/>
<path class="st0" d="M2018,1516.98c-160.53,0-321.06,0-481.59,0c-141.91-47.57-237.5-181.7-235.91-330.48
	c1.56-146.13,96.54-276.42,235.91-323.11c160.53,0,321.06,0,481.59,0"/>
<path class="st0" d="M1605.21,1121.38c-48.38,29.03-62.02,93.56-34.4,137.6c32.64,52.04,111.93,57.99,154.8,17.2
	c31.01-29.51,40.27-80.94,17.2-120.4C1716.07,1110.04,1653.08,1092.66,1605.21,1121.38z"/>
</svg>
